# xmcd
#
# Track frame offsets: 
#        150
#        17933
#        38483
#        62731
#        88958
#        103371
#        117534
#        133007
#
# Disc length: 1961 seconds
#
# Revision: 0
# Processed by: cddbd v1.5.2PL0 Copyright (c) Steve Scherf et al.
# Submitted via: ExactAudioCopy v1.2
#
DISCID=7207a708
DTITLE=Scott Ramminger - Rise Up
DYEAR=2019
DGENRE=Blues
TTITLE0=Thinking About You
TTITLE1=88 Reasons
TTITLE2=Lemonade Blues
TTITLE3=Rise Up
TTITLE4=Daisy
TTITLE5=The Feeling When I'm Falling
TTITLE6=Ice Cream
TTITLE7=All Done
EXTD=
EXTT0=
EXTT1=
EXTT2=
EXTT3=
EXTT4=
EXTT5=
EXTT6=
EXTT7=
PLAYORDER=
